<svg xmlns="http://www.w3.org/2000/svg" viewBox="0 0 595.28 200.46">
<defs>
<style>
.cls-1{fill:#ffffff;}
.ld-1 {opacity:0;animation: ld-in 1.5s 0.0s ease infinite;}
.ld-2 {opacity:0;animation: ld-in 1.5s 0.1s ease infinite;}
.ld-3 {opacity:0;animation: ld-in 1.5s 0.2s ease infinite;}
.ld-4 {opacity:0;animation: ld-in 1.5s 0.3s ease infinite;}
.ld-5 {opacity:0;animation: ld-in 1.5s 0.4s ease infinite;}
.ld-6 {opacity:0;animation: ld-in 1.5s 0.5s ease infinite;}
.ld-7 {opacity:0;animation: ld-in 1.5s 0.6s ease infinite;}
.ld-8 {opacity:0;animation: ld-in 1.5s 0.7s ease infinite;}
.ld-9 {opacity:0;animation: ld-in 1.5s 0.8s ease infinite;}
.ld-10 {opacity:0;animation: ld-in 1.5s 0.9s ease infinite;}

@keyframes ld-in {
  0% {opacity:0;transform:scale(0);}
  30% {opacity:1;transform:scale(1);}
  100% {opacity:1;transform:scale(1);}
}
</style>
</defs>

<g id="Layer_2" data-name="Layer 2">
<g id="Layer_1-2" data-name="Layer 1">
<path class="cls-1 ld-1" d="M2.78,186.58v-9.86s-.21-14.64,13.07-14.59H18.4s10.87-.81,11.77,10v2.17s.11,2.08-1.45,2.38h-4.3s-1.8.08-2.18-1.1l-.61-3s-.87-3.29-6.54-2.2c0,0-3.33.53-3.66,7.09v5.69s-.33,9.25,4.53,9h2.11s3.76.18,4-6.27H20a1.53,1.53,0,0,1-1.58-1.6v-3.1a1.7,1.7,0,0,1,1.48-1.67h7.35s3.06-.34,3.25,3.76v14.35s.06,2.46-2,2.42h-2a2.68,2.68,0,0,1-2.53-1.74l-.81-1.79A6.12,6.12,0,0,1,17.93,200H13.84s-10.53.19-11.06-13.45"/>
<path class="cls-1 ld-2" d="M158.81,177.11h-7.43v-6.54h7s2.45,0,2.45,3.38c0,0-.08,3-2,3.16m1.12-15h-14.2c-3.29,0-3.16,3.9-3.16,3.9v31.58c-.11,2.23,1.53,2.35,1.53,2.35h5c2.2.16,2.2-2.35,2.2-2.35V185.82h5c4.44-.06,4.54,3.1,4.54,3.1v8.74c0,2.5,1.27,2.34,1.27,2.34h5.21c1.86.21,1.95-2.29,1.95-2.29V187.59c-.53-5.78-3.37-6.53-3.37-6.53,4.17-3.41,3.73-7.15,3.73-7.15.77-11.48-9.63-11.78-9.63-11.78"/>
<path class="cls-1 ld-3" d="M422.45,187.92v-23.3a2.1,2.1,0,0,1,2.27-2.49h4.49s2.08,0,2.08,2.49v23.3a2.86,2.86,0,0,0,3.48,3.21s3.65.82,3.65-3.21v-23.3s-.29-2.53,2.18-2.49H445a2.36,2.36,0,0,1,2.38,2.49V188s1,11.77-12.66,11.77c0,0-11.83,1.42-12.29-11.9"/>
<path class="cls-1 ld-4" d="M300.1,188.56a4.29,4.29,0,0,1-4.93,4.24,4.35,4.35,0,0,1-4.29-4.24s-.78-8.3,0-13.16a4.78,4.78,0,0,1,4.3-4.21s4.21-.55,4.93,4.21c0,0,.67,9.65,0,13.16m9.41-15.72c-2.64-12.19-14.33-10.68-14.33-10.68-12.47,0-13.66,12.34-13.66,12.34-1.51,5.76.28,14.77.28,14.77,2.49,9.8,9.08,10.65,9.08,10.65a20.67,20.67,0,0,0,9.23.08c8.29-1.18,9.35-10.95,9.35-10.95a55.59,55.59,0,0,0,.06-16.21"/>
<path class="cls-1 ld-5" d="M577,177.2h-7.45v-6.56h7s2.46,0,2.46,3.39c0,0,0,3-2,3.17m10.55-7.84c-1.19-7.23-10.55-7.23-10.55-7.23h-13.1a2.88,2.88,0,0,0-3.13,3.13v32.4a2.24,2.24,0,0,0,2.15,2.21h4.32c2.18.13,2.18-2.16,2.18-2.16V185.79c17.85,1.37,18.16-8.32,18.16-8.32.6-1.7,0-8.11,0-8.11"/>
<path class="cls-1 ld-6" d="M558.18,135.44H503.54s-8.25,1.34-8.48-8.34c-.1-6.67,0-14.89,0-14.89s-.06-7.75,8.48-7.45h45.81s7.76.75,7.49-6.09c0,0,1.87-7.44-9.09-9.08,0,0-19.91-2.81-31.94-6.68,0,0-18.58-4.47-18.91-27.39V40.75s-2.12-39,44.45-40.2h13.57S593.86,0,595.23,35.09v3.57s1.1,9.54-6.93,9.54H572.89s-6.17.74-7.44-4.48c0,0-.62-17.25-17.2-16.52h-6.67s-12.83-.14-13.53,11.18v7.3s-1.65,12.49,17.72,12.65c0,0,40.11,2.38,45.83,22.32,0,0,4.09,20.68-1.06,34.54,0,0-5.75,17.71-32.37,20.25"/>
<path class="cls-1 ld-7" d="M372.79,87.49V52.22S371.86,0,421.44.1h9.64s40.46-2.8,43.58,36v7.57s.63,7.47-5.17,8.51H453.4s-6.64.31-8-3.87l-2.29-10.74s-3.33-11.89-24.29-7.86c0,0-12.6,1.77-13.82,25.15V75.28s-1.17,32.89,16.9,32h7.77s14,.58,14.87-22.5h-7.44a5.43,5.43,0,0,1-5.93-5.62V68.31a6.22,6.22,0,0,1,5.52-6.13h27.44S475.51,61,476.24,75.59V127s.21,8.63-7.35,8.47h-7.21a10.15,10.15,0,0,1-9.62-6.26L449,122.92s-5,11.76-19.9,12.52H414s-39.21.59-41.2-47.94"/>
<path class="cls-1 ld-8" d="M250.2,126.5v-116S250,.72,258.49.27h12.32s6.68-.6,10.2,5.21l42,60.29V9.19S322.51.27,331.79.27h16.58s7.75.28,7.25,8.78V127s-.31,8.31-8.83,8.31h-8.3s-6.88.77-11.72-7.73L282.69,65.9V127s.63,8.31-7.58,8.47h-17.4s-7.39-.16-7.51-8.94"/>
<path class="cls-1 ld-9" d="M163.5,83.78l11-35.13,11.49,35.13ZM230.79,127,198.61,11.44C194.7-1.82,183.58.1,183.58.1H166.24c-9.63.3-12.5,13.1-12.5,13.1L118.07,127c-1.86,8,5.85,8.47,5.85,8.47h17.34c5.88.3,8-8.47,8-8.47,1.24-3.58,5.2-13.57,5.2-13.57h40.92L199.87,127c2.48,9.95,7.78,8.47,7.78,8.47h17.61c8.55.16,5.53-8.47,5.53-8.47"/>
<path class="cls-1 ld-10" d="M60.62,53.72H33V30.48H59s9-.15,9,12.05c0,0-.24,10.73-7.4,11.19M64.91.27H11.8C-.35.27,0,14.11,0,14.11V127c-.37,7.87,5.64,8.31,5.64,8.31H24.33c8.19.75,8-8.31,8-8.31V84.8H51.15C67.59,84.67,67.88,96,67.88,96v31.11c.27,8.94,5,8.34,5,8.34H92.15c7,.89,7.32-8.2,7.32-8.2V91.08C97.47,70.53,86.89,68,86.89,68c15.43-12.35,14-25.6,14-25.6C103.78,1.45,64.91.27,64.91.27"/></g>
</g>
</svg>