<svg xmlns="http://www.w3.org/2000/svg" viewBox="0 0 35.589 11.878">
  <defs>
    <style>
      .cls-1 {
        fill: #515151;
      }
    </style>
  </defs>
  <g id="Group_287" data-name="Group 287" transform="translate(-1271.896 257.008) rotate(-90)">
    <g id="back" transform="translate(257.008 1300.727) rotate(90)">
      <path id="Path_2" data-name="Path 2" class="cls-1" d="M5.882,5.939.107.574A.318.318,0,0,1,.107.1.381.381,0,0,1,.618.1L6.652,5.7a.319.319,0,0,1,0,.475l-6.033,5.6a.379.379,0,0,1-.255.1.367.367,0,0,1-.255-.1.319.319,0,0,1,0-.475Z" transform="translate(0 0)"/>
    </g>
    <rect id="Rectangle_217" data-name="Rectangle 217" class="cls-1" width="35.589" height="0.918" rx="0.459" transform="translate(251.882 1271.896) rotate(90)"/>
  </g>
</svg>
